<svg version="1.1" id="svg-layer" xmlns="http://www.w3.org/2000/svg" xmlns:xlink="http://www.w3.org/1999/xlink" x="0px" y="0px"
 width="300px" height="300px" viewBox="175 0 160 190"
 xml:space="preserve">
<g>
	<g id="fox-nose-tip">
		<linearGradient id="SVGID_6_" gradientUnits="userSpaceOnUse" x1="272.4863" y1="155.1592" x2="271.9888" y2="163.063" gradientTransform="matrix(1 -0.0082 0.0082 1 -29.1484 5.8137)">
			<stop  offset="0" style="stop-color:#544741"/>
			<stop  offset="1" style="stop-color:#000000"/>
		</linearGradient>
		<polygon fill="url(#SVGID_6_)" points="249.488,156.608 237.707,156.823 234.486,163.126 254.244,163.294 		"/>
		<linearGradient id="SVGID_7_" gradientUnits="userSpaceOnUse" x1="269.9063" y1="170.9922" x2="272.052" y2="160.3212" gradientTransform="matrix(1 -0.0082 0.0082 1 -29.1484 5.8137)">
			<stop  offset="0" style="stop-color:#544741"/>
			<stop  offset="1" style="stop-color:#000000"/>
		</linearGradient>
		<polygon fill="url(#SVGID_7_)" points="234.486,163.126 234.445,163.202 244.055,172.489 254.244,163.294 		"/>
	</g>
<linearGradient id="SVGID_8_" gradientUnits="userSpaceOnUse" x1="205.9814" y1="77.3921" x2="241.7096" y2="41.664" gradientTransform="matrix(1 -0.0082 0.0082 1 -29.1484 5.8137)">
<stop  offset="0" style="stop-color:#96634D"/>
<stop  offset="1" style="stop-color:#BF9353"/>
</linearGradient>
<polygon fill="url(#SVGID_8_)" points="192.801,72.872 194.285,13.855 236.393,72.186 212.201,80.583 195.98,100.708 	"/>
<linearGradient id="SVGID_13_" gradientUnits="userSpaceOnUse" x1="325.5498" y1="128.0513" x2="287.5763" y2="95.5026" gradientTransform="matrix(1 -0.0082 0.0082 1 -29.1484 5.8137)">
<stop  offset="0" style="stop-color:#96634D"/>
<stop  offset="1" style="stop-color:#BF9353"/>
</linearGradient>
<polygon id="eye-sock-right" fill="url(#SVGID_13_)" points="296.285,100.544 302.094,129.341 272.018,139.424 260.039,117.562 	"/>
<linearGradient id="SVGID_10_" gradientUnits="userSpaceOnUse" x1="259.4922" y1="125.0078" x2="236.8237" y2="117.4516" gradientTransform="matrix(1 -0.0082 0.0082 1 -29.1484 5.8137)">
<stop  offset="0" style="stop-color:#e59451"/>
<stop  offset="1" style="stop-color:#FEFBDA"/>
</linearGradient>
<polygon id="eye-socket-left" fill="url(#SVGID_10_)" points="195.98,100.708 201.498,134.427 224.842,143.088 231.178,116.158 	"/>
<linearGradient id="SVGID_16_" gradientUnits="userSpaceOnUse" x1="307.6133" y1="107.5366" x2="294.4836" y2="116.7753" gradientTransform="matrix(1 -0.0082 0.0082 1 -29.1484 5.8137)">
<stop  offset="0" style="stop-color:#414042"/>
<stop  offset="1" style="stop-color:#402312"/>
</linearGradient>
<polygon id="eye-right" fill="url(#SVGID_16_)" points="271.461,112.781 260.039,117.562 265.619,127.75 284.412,111.785 	"/>
<linearGradient id="SVGID_17_" gradientUnits="userSpaceOnUse" x1="528.249" y1="106.6738" x2="515.4787" y2="115.6597" gradientTransform="matrix(-1 0.0082 0.0082 1 741.0635 -0.2004)">
<stop  offset="0" style="stop-color:#414042"/>
<stop  offset="1" style="stop-color:#402312"/>
</linearGradient>
<polygon id="eye-left" fill="url(#SVGID_17_)" points="220.498,111.468 231.178,116.158 227.342,126.984 209.5,110.761 	"/>
<polygon id="pupil-left" points="231.178,116.158 221.076,121.285 220.498,111.468 	"/>
<polygon id="pupil-right" points="270.566,123.544 262.512,116.525 271.461,112.781 	"/>
<linearGradient id="SVGID_11_" gradientUnits="userSpaceOnUse" x1="271.0967" y1="139.377" x2="260.2412" y2="135.7585" gradientTransform="matrix(1 -0.0082 0.0082 1 -29.1484 5.8137)">
<stop  offset="0" style="stop-color:#e59451"/>
<stop  offset="1" style="stop-color:#FEFBDA"/>
</linearGradient>
<polygon id="nose-side-left" fill="url(#SVGID_11_)" points="223.121,138.893 234.486,163.126 237.707,156.823 231.178,116.158 	"/>
<linearGradient id="SVGID_12_" gradientUnits="userSpaceOnUse" x1="293.5479" y1="144.1367" x2="269.6187" y2="123.626" gradientTransform="matrix(1 -0.0082 0.0082 1 -29.1484 5.8137)">
<stop  offset="0" style="stop-color:#96634D"/>
<stop  offset="1" style="stop-color:#BF9353"/>
</linearGradient>
<polygon id="nose-side-right" fill="url(#SVGID_12_)" points="260.039,117.562 272.018,139.424 254.244,163.294 249.488,156.608 	"/>
<linearGradient id="SVGID_9_" gradientUnits="userSpaceOnUse" x1="320.1309" y1="124.0659" x2="266.7884" y2="106.2851" gradientTransform="matrix(1 -0.0082 0.0082 1 -29.1484 5.8137)">
<stop  offset="0" style="stop-color:#e59451"/>
<stop  offset="1" style="stop-color:#f04d28"/>
</linearGradient>
<polygon  fill="url(#SVGID_9_)" points="249.488,156.608 260.994,117.951 296.285,100.544 268.85,72.577 236.393,72.186
212.201,80.583 195.98,100.708 231.178,116.158 237.707,156.823 	"/>
<linearGradient id="SVGID_14_" gradientUnits="userSpaceOnUse" x1="251.5098" y1="93.5879" x2="236.4911" y2="104.1558" gradientTransform="matrix(1 -0.0082 0.0082 1 -29.1484 5.8137)">
<stop  offset="0" style="stop-color:#e59451"/>
<stop  offset="1" style="stop-color:#f04d28"/>
</linearGradient>
<polygon id="brow-left" fill="url(#SVGID_14_)" points="212.201,80.583 237.309,110.144 231.178,116.158 195.98,100.708 	"/>
<linearGradient id="SVGID_15_" gradientUnits="userSpaceOnUse" x1="302.1787" y1="100.5654" x2="317.3458" y2="116.377" gradientTransform="matrix(1 -0.0082 0.0082 1 -29.1484 5.8137)">
<stop  offset="0" style="stop-color:#e59451"/>
<stop  offset="1" style="stop-color:#f04d28"/>
</linearGradient>
<polygon id="brow-right" fill="url(#SVGID_15_)" points="254.252,109.414 260.039,117.562 296.285,100.544 284.701,87.198 	"/>
<linearGradient id="SVGID_18_" gradientUnits="userSpaceOnUse" x1="330.2598" y1="79.4849" x2="391.2287" y2="28.677" gradientTransform="matrix(1 -0.0082 0.0082 1 -29.1484 5.8137)">
<stop  offset="0" style="stop-color:#96634D"/>
<stop  offset="1" style="stop-color:#BF9353"/>
</linearGradient>
<polygon fill="url(#SVGID_18_)" points="268.85,72.577 315.006,24.339 313,100.075 302.094,129.341 296.529,100.538 	"/>
<linearGradient id="SVGID_19_" gradientUnits="userSpaceOnUse" x1="233.1357" y1="155.5156" x2="251.9419" y2="119.5399" gradientTransform="matrix(1 -0.0082 0.0082 1 -29.1484 5.8137)">
<stop  offset="0" style="stop-color:#e59451"/>
<stop  offset="1" style="stop-color:#FEFBDA"/>
</linearGradient>
<polygon fill="url(#SVGID_19_)" points="201.498,134.427 223.639,155.884 223.121,138.893 	"/>
<linearGradient id="SVGID_20_" gradientUnits="userSpaceOnUse" x1="261.0615" y1="164.1138" x2="266.161" y2="172.7966" gradientTransform="matrix(1 -0.0082 0.0082 1 -29.1484 5.8137)">
<stop  offset="0" style="stop-color:#e59451"/>
<stop  offset="1" style="stop-color:#FEFBDA"/>
</linearGradient>
<polygon fill="url(#SVGID_20_)" points="234.445,163.202 229.695,175.172 244.055,172.489 	"/>
<linearGradient id="SVGID_21_" gradientUnits="userSpaceOnUse" x1="493.9121" y1="156.936" x2="486.2115" y2="167.2038" gradientTransform="matrix(-1 0.0082 0.0082 1 736.3818 -0.1624)">
<stop  offset="0" style="stop-color:#e59451"/>
<stop  offset="1" style="stop-color:#FEFBDA"/>
</linearGradient>
<polygon fill="url(#SVGID_21_)" points="254.244,163.294 259.844,173.946 244.055,172.489 	"/>
<linearGradient id="SVGID_22_" gradientUnits="userSpaceOnUse" x1="272.5459" y1="128.9731" x2="256.1255" y2="150.8674" gradientTransform="matrix(1 -0.0082 0.0082 1 -29.1484 5.8137)">
<stop  offset="0" style="stop-color:#e59451"/>
<stop  offset="1" style="stop-color:#FEFBDA"/>
</linearGradient>
<polygon fill="url(#SVGID_22_)" points="223.639,155.884 229.695,175.172 234.445,163.202 223.121,138.893 	"/>
<linearGradient id="SVGID_23_" gradientUnits="userSpaceOnUse" x1="315.0186" y1="128.1196" x2="315.6733" y2="146.1488" gradientTransform="matrix(1 -0.0082 0.0082 1 -29.1484 5.8137)">
<stop  offset="0" style="stop-color:#6B4634"/>
<stop  offset="1" style="stop-color:#BD6B4A"/>
</linearGradient>
<polygon fill="url(#SVGID_23_)" points="302.094,129.341 275.43,155.458 272.018,139.424 	"/>
<linearGradient id="SVGID_24_" gradientUnits="userSpaceOnUse" x1="292.9775" y1="150.8779" x2="291.6667" y2="175.4632" gradientTransform="matrix(1 -0.0082 0.0082 1 -29.1484 5.8137)">
<stop  offset="0" style="stop-color:#6B4634"/>
<stop  offset="1" style="stop-color:#864B31"/>
</linearGradient>
<polygon fill="url(#SVGID_24_)" points="275.43,155.458 259.844,173.946 254.244,163.294 272.018,139.424 	"/>
<linearGradient id="SVGID_25_" gradientUnits="userSpaceOnUse" x1="339.585" y1="31.9888" x2="303.7775" y2="57.1847" gradientTransform="matrix(1 -0.0082 0.0082 1 -29.1484 5.8137)">
<stop  offset="0" style="stop-color:#e59451"/>
<stop  offset="1" style="stop-color:#f04d28"/>
</linearGradient>
<polygon fill="url(#SVGID_25_)" points="264.561,69.006 315.006,24.339 268.85,72.577 	"/>
<linearGradient id="SVGID_26_" gradientUnits="userSpaceOnUse" x1="246.8818" y1="37.2979" x2="244.7213" y2="38.8181" gradientTransform="matrix(1 -0.0082 0.0082 1 -29.1484 5.8137)">
<stop  offset="0" style="stop-color:#e59451"/>
<stop  offset="1" style="stop-color:#f04d28"/>
</linearGradient>
<polygon fill="url(#SVGID_26_)" points="197.238,14.483 238.662,68.889 236.393,72.186 194.285,13.855 	"/>
<linearGradient id="SVGID_27_" gradientUnits="userSpaceOnUse" x1="282.3926" y1="60.3281" x2="280.8506" y2="71.4317" gradientTransform="matrix(1 -0.0082 0.0082 1 -29.1484 5.8137)">
<stop  offset="0" style="stop-color:#e59451"/>
<stop  offset="1" style="stop-color:#FEFBDA"/>
</linearGradient>
<polygon fill="url(#SVGID_27_)" points="238.662,68.889 264.561,69.006 268.85,72.577 236.393,72.186 	"/>
<linearGradient id="SVGID_28_" gradientUnits="userSpaceOnUse" x1="272.5566" y1="171.3882" x2="273.2563" y2="178.3849" gradientTransform="matrix(1 -0.0082 0.0082 1 -29.1484 5.8137)">
<stop  offset="0" style="stop-color:#e59451"/>
<stop  offset="1" style="stop-color:#FEFBDA"/>
</linearGradient>
<polygon id="chin" fill="url(#SVGID_28_)" points="229.695,175.172 243.736,181.393 259.844,173.946 243.148,172.375 	"/>
<linearGradient id="SVGID_29_" gradientUnits="userSpaceOnUse" x1="233.418" y1="69.7012" x2="246.5296" y2="33.6413" gradientTransform="matrix(1 -0.0082 0.0082 1 -29.1484 5.8137)">
<stop  offset="0" style="stop-color:#96634D"/>
<stop  offset="1" style="stop-color:#BF9353"/>
</linearGradient>
<polygon fill="url(#SVGID_29_)" points="194.619,14.831 212.201,80.583 236.393,72.186 	"/>
<linearGradient id="SVGID_30_" gradientUnits="userSpaceOnUse" x1="308.8623" y1="77.8418" x2="325.282" y2="32.6841" gradientTransform="matrix(1 -0.0082 0.0082 1 -29.1484 5.8137)">
<stop  offset="0" style="stop-color:#6B4634"/>
<stop  offset="1" style="stop-color:#864B31"/>
</linearGradient>
<polygon fill="url(#SVGID_30_)" points="284.014,87.897 315.006,24.339 268.85,72.577 	"/>
<linearGradient id="SVGID_31_" gradientUnits="userSpaceOnUse" x1="330.042" y1="109.6284" x2="351.4082" y2="91.8231" gradientTransform="matrix(1 -0.0082 0.0082 1 -29.1484 5.8137)">
<stop  offset="0" style="stop-color:#96634D"/>
<stop  offset="1" style="stop-color:#BF9353"/>
</linearGradient>
<polygon fill="url(#SVGID_31_)" points="296.285,100.544 313,100.075 302.094,129.341 	"/>
</g>
</svg>
